HIERARCHY
ROOT pelvis
{
  OFFSET 0 100 0
  CHANNELS 6 Xposition Yposition Zposition Zrotation Xrotation Yrotation
  JOINT pelvis_right_femur
  {
    OFFSET -10.78128 -3.44521 -0.5502486
    CHANNELS 3 Zrotation Xrotation Yrotation
    JOINT right_femur_tibia
    {
      OFFSET -0.8047443 -44.0398 -0.1307829
      CHANNELS 3 Zrotation Xrotation Yrotation
      JOINT right_tibia_foot
      {
        OFFSET 3.006224 -47.83518 -5
        CHANNELS 3 Zrotation Xrotation Yrotation
        End Site
        {
          OFFSET 0 -5 15
        }
      }
    }
  }
  JOINT pelvis_left_femur
  {
    OFFSET 10.78128 -3.44521 -0.5502486
    CHANNELS 3 Zrotation Xrotation Yrotation
    JOINT left_femur_tibia
    {
      OFFSET 0.8047443 -44.0398 -0.1307829
      CHANNELS 3 Zrotation Xrotation Yrotation
      JOINT left_tibia_foot
      {
        OFFSET -4.370144 -48.10324 -4.275266
        CHANNELS 3 Zrotation Xrotation Yrotation
        End Site
        {
          OFFSET 0 -5 15
        }
      }
    }
  }
  JOINT pelvis_spine1
  {
    OFFSET 0 6.468898 -3.129235
    CHANNELS 3 Zrotation Xrotation Yrotation
    JOINT spine1
    {
      OFFSET 0 23.15396 4.99043
      CHANNELS 3 Zrotation Xrotation Yrotation
      JOINT spine2
      {
        OFFSET 0 20.79997 -5.064912
        CHANNELS 3 Zrotation Xrotation Yrotation
        JOINT neck
        {
          OFFSET 0 14.38658 9.616178
          CHANNELS 3 Zrotation Xrotation Yrotation
          End Site
          {
            OFFSET 0 20 0
          }
        }
      }
      JOINT right_manubrium
      {
        OFFSET -5.722621 16.35077 3.967754
        CHANNELS 3 Zrotation Xrotation Yrotation
        JOINT right_clavicle
        {
          OFFSET -13.16364 1.694482 -4.693211
          CHANNELS 3 Zrotation Xrotation Yrotation
          JOINT right_humerus
          {
            OFFSET -28.5034 -0.3100689 -2.792744
            CHANNELS 3 Zrotation Xrotation Yrotation
            JOINT right_radius
            {
              OFFSET -25.15693 0.02248979 -1.271978
              CHANNELS 3 Zrotation Xrotation Yrotation
              End Site
              {
                OFFSET -15 0 0
              }
            }
          }
        }
      }
      JOINT left_manubrium
      {
        OFFSET 5.722621 16.35077 3.967754
        CHANNELS 3 Zrotation Xrotation Yrotation
        JOINT left_clavicle
        {
          OFFSET 13.16364 1.694482 -4.693211
          CHANNELS 3 Zrotation Xrotation Yrotation
          JOINT left_humerus
          {
            OFFSET 29.39168 -1.063119 -2.237045
            CHANNELS 3 Zrotation Xrotation Yrotation
            JOINT left_radius
            {
              OFFSET 24.59957 -0.9528479 0.9047498
              CHANNELS 3 Zrotation Xrotation Yrotation
              End Site
              {
                OFFSET 15 -0 -0
              }
            }
          }
        }
      }
    }
  }
}
MOTION
Frames: 7
Frame Time: 0.0416666666667
0 103.5113 0 0.8347678 -1.751719 0.8599726 1.051124 -21.74933 3.0004 -0 34.79536 -0 -4.022744 -4.948718 -3.504228 -6.255778 12.29139 -17.08011 0 -5.584863 0 3.315573 -21.50303 20.43779 -3.583143 -1.452367 2.88787 1.46484 8.709175 -7.168331 1.428679 22.18465 7.186073 2.968792 -21.66211 9.059294 3.948551 -18.19202 10.51334 86.91445 31.48936 -17.92681 -0 0 14.25193 -15.11335 10.02318 8.84199 6.301318 -20.00488 -3.535456 -88.99157 27.00052 16.39691 0 0 -19.31106 3.543089 14.17349 9.728621
0.6100756 102.3944 3.73745 0.8606453 -1.658105 1.703097 1.012556 -21.84096 2.975026 -0 34.822 -0 -4.09165 -5.02911 -3.426252 -6.268144 12.30814 -17.21908 0 -6.495571 0 3.549976 -21.64004 20.59532 -3.61767 -1.493685 2.882055 1.476091 8.708088 -7.178322 1.412021 22.16251 7.203929 2.984464 -21.74185 9.070867 3.948379 -18.30361 10.5156 86.86337 31.52919 -17.86451 -0 0 14.38243 -15.03935 9.960009 8.855805 6.332203 -20.02248 -3.528799 -89.08727 26.99125 16.55749 0 0 -19.26539 3.635024 14.26122 9.628648
1.123498 101.1747 7.42031 0.5754802 -1.113386 2.382122 1.87096 -24.31001 2.887404 -0 29.36411 -0 -4.868751 -5.894664 -3.393578 -5.886619 13.53715 -17.01557 0 -4.257639 0 3.579895 -21.67686 20.03868 -3.279681 -1.612009 2.805152 1.828318 8.842479 -7.604393 1.341006 21.98412 7.122559 3.020045 -22.15149 8.928537 3.838913 -18.2543 10.61739 87.58277 31.63003 -19.26341 -0 0 13.65968 -14.18342 10.02672 8.251774 6.559006 -20.88082 -3.611194 -88.74122 26.75695 15.96193 0 0 -21.03215 4.369854 14.55783 8.832314
1.56835 99.80769 11.01215 0.3444994 -0.6430349 2.957321 2.500488 -26.28839 2.76956 -0 25.10576 -0 -5.6013 -6.575842 -3.276293 -5.596281 14.49519 -16.97045 0 -3.408572 0 3.883577 -21.80628 19.76197 -3.042112 -1.758584 2.738496 2.106278 8.977551 -7.943504 1.266919 21.82526 7.067778 3.065303 -22.54121 8.813115 3.720978 -18.35463 10.70434 88.13196 31.66146 -20.29107 -0 0 13.21586 -13.4885 10.00142 7.817092 6.772464 -21.60603 -3.695539 -88.56293 26.46936 15.66687 0 0 -22.34391 5.128898 14.89093 7.996234
1.929292 98.33494 14.56569 0.113747 -0.2806645 3.420059 3.153406 -28.10992 2.685874 -0 20.93797 -0 -6.265603 -7.132043 -3.236307 -5.304678 15.40756 -16.78562 0 -1.691506 0 3.965717 -21.78666 19.33862 -2.775091 -1.865133 2.679012 2.363123 9.119485 -8.262643 1.210422 21.69357 6.994275 3.094212 -22.83866 8.68437 3.595808 -18.35191 10.78837 88.72866 31.61726 -21.34797 -0 0 12.65316 -12.9007 10.03171 7.387828 6.951028 -22.30612 -3.792287 -88.29852 26.16497 15.22795 0 0 -23.65575 5.808762 15.12995 7.242608
2.212335 96.79656 18.12789 -0.0771181 -0.07426273 3.78264 3.711258 -29.54387 2.582999 -0 17.45565 -0 -6.844539 -7.429085 -3.229551 -5.058047 16.16956 -16.51137 -0 0.3349848 -0 3.943436 -21.64432 18.88247 -2.52249 -1.942863 2.626672 2.559378 9.277707 -8.519533 1.171927 21.60288 6.912384 3.111363 -23.0218 8.5518 3.453005 -18.30393 10.86236 89.30349 31.44836 -22.26801 -0 0 12.07566 -12.51594 10.08424 7.046087 7.086222 -22.92561 -3.914244 -88.00658 25.79901 14.75636 0 0 -24.75589 6.428056 15.29487 6.539956
2.421177 95.2547 21.77089 -0.2216706 -0.05545738 4.052924 4.19349 -30.54678 2.490386 -0 14.68504 -0 -7.268591 -7.450824 -3.305021 -4.857492 16.77709 -16.08301 -0 3.164744 -0 3.666072 -21.31702 18.30952 -2.270623 -1.961889 2.585124 2.690883 9.437178 -8.708136 1.162099 21.56539 6.816973 3.107118 -23.0483 8.417233 3.308545 -18.135 10.92244 89.86234 31.17037 -23.07822 -0 0 11.418 -12.35687 10.20072 6.775295 7.156476 -23.43235 -4.052638 -87.64068 25.42037 14.16214 0 0 -25.67154 6.884448 15.3307 6.005068
